<?xml version="1.0" encoding="iso-8859-1"?>
<!-- Generator: Adobe Illustrator 22.1.0, SVG Export Plug-In . SVG Version: 6.00 Build 0)  -->
<svg xmlns="http://www.w3.org/2000/svg" xmlns:xlink="http://www.w3.org/1999/xlink" version="1.1" id="Layer_1_1_" x="0px" y="0px" viewBox="0 0 64 64" style="enable-background:new 0 0 64 64;" xml:space="preserve" width="512" height="512">
<g>
	<g>
		<path style="fill:#F0BC5E;" d="M22,62H4c-1.105,0-2-0.895-2-2v-9h22v9C24,61.105,23.105,62,22,62z"/>
	</g>
	<g>
		<path style="fill:#F0BC5E;" d="M60,62H42c-1.105,0-2-0.895-2-2v-9h22v9C62,61.105,61.105,62,60,62z"/>
	</g>
	<g>
		<path style="fill:#F0BC5E;" d="M48,8c-0.782,0-1.562,0.094-2.33,0.279C43.494,3.829,39.006,1,34,1    c-4.015,0-7.808,1.872-10.267,5.037C23.481,6.013,23.238,6,23,6c-2.895,0-5.548,1.57-6.958,4.06C15.696,10.021,15.348,10,15,10    c-4.963,0-9,4.037-9,9s4.037,9,9,9h7v-2c0-1.105,0.895-2,2-2v-4c-1.105,0-2-0.895-2-2v-2c0-1.105,0.895-2,2-2h16    c1.105,0,2,0.895,2,2v2c0,1.105-0.895,2-2,2v4c1.105,0,2,0.895,2,2v2h6c5.514,0,10-4.486,10-10S53.514,8,48,8z"/>
	</g>
	<g>
		<rect x="15" y="47" width="6" height="2"/>
		<path d="M60,43h-7.171c-0.801,0-1.555,0.312-2.122,0.879L47.586,47H42c-1.654,0-3,1.346-3,3v4h-4.184    c-0.302-0.847-0.969-1.514-1.816-1.816V41h7c1.654,0,3-1.346,3-3v-2c0-1.302-0.839-2.402-2-2.816v-2.369    c1.161-0.414,2-1.514,2-2.816v-2c0-1.302-0.839-2.402-2-2.816v-2.369c1.161-0.414,2-1.514,2-2.816v-2c0-1.654-1.346-3-3-3H24    c-1.654,0-3,1.346-3,3v2c0,1.302,0.839,2.402,2,2.816v2.369c-1.161,0.414-2,1.514-2,2.816v2c0,1.302,0.839,2.402,2,2.816v2.369    c-1.161,0.414-2,1.514-2,2.816v2c0,1.654,1.346,3,3,3h7v11.184c-0.847,0.302-1.514,0.969-1.816,1.816H25v-8c0-1.654-1.346-3-3-3    h-7.171c-0.801,0-1.555,0.312-2.122,0.879L9.586,47H4c-1.654,0-3,1.346-3,3v10c0,1.654,1.346,3,3,3h18c1.654,0,3-1.346,3-3v-4    h4.184c0.414,1.161,1.514,2,2.816,2s2.402-0.839,2.816-2H39v4c0,1.654,1.346,3,3,3h18c1.654,0,3-1.346,3-3V46    C63,44.346,61.654,43,60,43z M39,31v2H25v-2H39z M39,21v2H25v-2H39z M23,16c0-0.551,0.449-1,1-1h16c0.551,0,1,0.449,1,1v2    c0,0.551-0.449,1-1,1H24c-0.551,0-1-0.449-1-1V16z M23,26c0-0.551,0.449-1,1-1h16c0.551,0,1,0.449,1,1v2c0,0.551-0.449,1-1,1H24    c-0.551,0-1-0.449-1-1V26z M23,38v-2c0-0.552,0.449-1,1-1h16c0.551,0,1,0.448,1,1v2c0,0.552-0.449,1-1,1H24    C23.449,39,23,38.552,23,38z M23,60c0,0.552-0.449,1-1,1H4c-0.551,0-1-0.448-1-1V50c0-0.552,0.449-1,1-1h6.414l3.707-3.707    C14.31,45.104,14.562,45,14.829,45H22c0.551,0,1,0.448,1,1V60z M32,56c-0.551,0-1-0.448-1-1s0.449-1,1-1s1,0.448,1,1    S32.551,56,32,56z M61,60c0,0.552-0.449,1-1,1H42c-0.551,0-1-0.448-1-1V50c0-0.552,0.449-1,1-1h6.414l3.707-3.707    C52.31,45.104,52.562,45,52.829,45H60c0.551,0,1,0.448,1,1V60z"/>
		<rect x="53" y="47" width="6" height="2"/>
		<path d="M54,18c0-3.309-2.691-6-6-6v2c2.206,0,4,1.794,4,4s-1.794,4-4,4v2C51.309,24,54,21.309,54,18z"/>
		<path d="M15,16v-2c-2.757,0-5,2.243-5,5h2C12,17.346,13.346,16,15,16z"/>
		<path d="M34,7c1.87,0,3.627,0.728,4.95,2.05l1.414-1.414C38.664,5.936,36.404,5,34,5s-4.664,0.936-6.364,2.636L29.05,9.05    C30.373,7.728,32.13,7,34,7z"/>
		<polygon points="5,30.414 5,40 7,40 7,30.414 9.293,32.707 10.707,31.293 6,26.586 1.293,31.293 2.707,32.707   "/>
		<rect x="5" y="42" width="2" height="2"/>
		<polygon points="53.293,36.707 58,41.414 62.707,36.707 61.293,35.293 59,37.586 59,28 57,28 57,37.586 54.707,35.293   "/>
		<rect x="57" y="24" width="2" height="2"/>
	</g>
</g>
</svg>
