<?xml version="1.0" encoding="iso-8859-1"?>
<!-- Generator: Adobe Illustrator 19.0.0, SVG Export Plug-In . SVG Version: 6.00 Build 0)  -->
<svg version="1.1" id="Capa_1" xmlns="http://www.w3.org/2000/svg" xmlns:xlink="http://www.w3.org/1999/xlink" x="0px" y="0px"
	 viewBox="0 0 512 512" style="enable-background:new 0 0 512 512;" xml:space="preserve">
<circle style="fill:#A53535;" cx="256" cy="267" r="245"/>
<path style="fill:#FFDD8D;" d="M235.5,354.323c0.086,0.476,0.501,0.821,0.984,0.821h82.624c0.265,0,0.52-0.105,0.707-0.293
	l32.21-32.21c1.602-1.602,3.534-2.759,5.644-3.423c-5.862-5.441-15.099-5.328-20.8,0.373l-27.524,27.523h-0.001h-75.155
	L235.5,354.323z"/>
<path style="fill:#FFC987;" d="M236.564,360.175c0.594,3.264,3.432,5.632,6.747,5.632h82.094c1.832,0,3.555-0.714,4.85-2.01
	l38.003-38.002c1.41-1.41,3.042-2.517,4.809-3.324l-0.536-0.535c-5.834-5.834-15.379-5.834-21.213-0.001l-32.21,32.21h-83.641
	L236.564,360.175z"/>
<path style="fill:#FFE2B8;" d="M396.213,328.898l-3.81-3.811c-3.306-3.306-7.719-5.126-12.426-5.126
	c-4.708,0-9.12,1.82-12.426,5.126l-38.003,38.002c-1.099,1.1-2.588,1.717-4.142,1.717h-82.094c-2.831,0-5.256-2.025-5.763-4.811
	l-3.621-19.913c-0.311-1.709,0.153-3.468,1.266-4.802c1.113-1.333,2.76-2.104,4.497-2.104h34.604c9.69,0,17.574-7.883,17.574-17.574
	v-5.387c0-9.691-7.884-17.574-17.574-17.574h-81.041c-7.604,0-14.307,4.842-16.68,12.049c-0.024,0.074-0.059,0.142-0.087,0.215
	v100.434H336.93c2.925,0,5.836-0.751,8.418-2.172c0.079-0.043,0.159-0.086,0.24-0.126c1.739-0.854,3.296-1.963,4.628-3.296
	l45.997-45.996c3.312-3.313,5.136-7.726,5.136-12.427S399.525,332.211,396.213,328.898z"/>
<path style="fill:#FFC987;" d="M274.294,292.643h-81.041c-7.604,0-14.307,4.842-16.68,12.049c-0.024,0.074-0.059,0.142-0.087,0.215
	v17.096c0.96-0.38,1.963-0.681,3.004-0.889c2.069-0.414,3.756-1.908,4.416-3.912c2.374-7.207,9.077-12.049,16.68-12.049h81.041
	c3.781,0,7.277,1.212,10.147,3.251C290.863,299.56,283.372,292.643,274.294,292.643z"/>
<path style="fill:#FFAF10;" d="M121.243,281.424H11.434c2.629,45.278,17.54,87.261,41.472,122.65h68.337V281.424z"/>
<path style="fill:#FF9518;" d="M125.243,416.547c-2.75,0-5-2.25-5-5V273.951c0-2.75,2.25-5,5-5h47.243c2.75,0,5,2.25,5,5v137.596
	c0,2.75-2.25,5-5,5H125.243z"/>
<path style="fill:#EF8318;" d="M140.085,411.547V273.951c0-2.75,2.25-5,5-5h-19.842c-2.75,0-5,2.25-5,5v137.596c0,2.75,2.25,5,5,5
	h19.842C142.335,416.547,140.085,414.297,140.085,411.547z"/>
<circle style="fill:#DB722C;" cx="148.86" cy="387.27" r="12.386"/>
<path style="fill:#D9EAFC;" d="M154.064,195.053c-3.202,0-5.807-2.605-5.807-5.807v-98.8H46.646c-2.75,0-5,2.25-5,5v146.245
	c0,2.75,2.25,5,5,5h140.679c2.75,0,5-2.25,5-5v-46.639h-38.261V195.053z"/>
<path style="fill:#AEC1ED;" d="M61.488,241.691V95.446c0-2.75,2.25-5,5-5H46.646c-2.75,0-5,2.25-5,5v146.245c0,2.75,2.25,5,5,5
	h19.842C63.738,246.691,61.488,244.441,61.488,241.691z"/>
<g>
	<path style="fill:#445EA0;" d="M148.257,121.447H78.518c-4.142,0-7.5,3.357-7.5,7.5c0,4.143,3.358,7.5,7.5,7.5h69.739
		L148.257,121.447L148.257,121.447z"/>
	<path style="fill:#445EA0;" d="M148.257,146.465H78.518c-4.142,0-7.5,3.357-7.5,7.5s3.358,7.5,7.5,7.5h69.739L148.257,146.465
		L148.257,146.465z"/>
	<path style="fill:#445EA0;" d="M148.257,171.482H78.518c-4.142,0-7.5,3.357-7.5,7.5s3.358,7.5,7.5,7.5h69.739L148.257,171.482
		L148.257,171.482z"/>
	<path style="fill:#445EA0;" d="M117.14,211.498H78.518c-4.142,0-7.5-3.357-7.5-7.5s3.358-7.5,7.5-7.5h38.622
		c4.142,0,7.5,3.357,7.5,7.5S121.282,211.498,117.14,211.498z"/>
</g>
<path style="fill:#69CDFF;" d="M318.269,176.943c0-2.206,1.794-4,4-4h110.9V6.809c0-3.744-3.063-6.809-6.807-6.809H154.064
	c-3.744,0-6.807,3.065-6.807,6.809v182.438c0,3.745,3.063,6.807,6.807,6.807h164.205L318.269,176.943L318.269,176.943z"/>
<path style="fill:#52BBEF;" d="M167.099,189.246V6.809c0-3.744,3.063-6.809,6.807-6.809h-19.842c-3.744,0-6.807,3.065-6.807,6.809
	v182.438c0,3.745,3.063,6.807,6.807,6.807h19.842C170.162,196.053,167.099,192.991,167.099,189.246z"/>
<path style="fill:#37C47A;" d="M318.269,176.943c0-2.206,1.794-4,4-4h106.139l-87.334-103.61c-2.414-2.862-6.361-2.862-8.774,0
	l-66.803,79.253c-2.415,2.86-6.361,2.86-8.774,0l-35.391-41.99c-2.413-2.861-6.362-2.861-8.775,0l-65.3,77.466v5.185
	c0,3.745,3.063,6.807,6.807,6.807h164.205L318.269,176.943L318.269,176.943z"/>
<path style="fill:#02AF8E;" d="M167.099,189.246v-5.185l59.766-70.901l-5.533-6.564c-2.413-2.861-6.362-2.861-8.775,0l-65.3,77.466
	v5.185c0,3.745,3.063,6.807,6.807,6.807h19.842C170.162,196.053,167.099,192.991,167.099,189.246z"/>
<path style="fill:#FFFFFF;" d="M374.371,35.7c0,11.279,9.145,20.425,20.423,20.425s20.423-9.146,20.423-20.425
	c0-11.277-9.145-20.421-20.423-20.421C383.516,15.279,374.371,24.423,374.371,35.7z"/>
<path style="fill:#D9EAFC;" d="M387.213,35.7c0-9.032,5.872-16.682,14.002-19.375c-2.021-0.67-4.176-1.046-6.421-1.046
	c-11.278,0-20.423,9.144-20.423,20.421c0,11.279,9.145,20.425,20.423,20.425c2.246,0,4.4-0.376,6.421-1.046
	C393.085,52.385,387.213,44.733,387.213,35.7z"/>
<path style="fill:#FF9518;" d="M470.354,280.163c0,2.75-2.25,5-5,5H322.269c-2.75,0-5-2.25-5-5v-103.22c0-2.75,2.25-5,5-5h143.086
	c2.75,0,5,2.25,5,5v103.22H470.354z"/>
<path style="fill:#EF8318;" d="M337.111,280.163v-103.22c0-2.75,2.25-5,5-5h-19.842c-2.75,0-5,2.25-5,5v103.22c0,2.75,2.25,5,5,5
	h19.842C339.361,285.163,337.111,282.913,337.111,280.163z"/>
<path style="fill:#FFFFFF;" d="M368.811,205.819c0-5.5,3.897-7.75,8.66-5l39.376,22.732c4.763,2.75,4.763,7.25,0,10l-39.376,22.734
	c-4.763,2.75-8.66,0.5-8.66-5V205.819z"/>
<g>
</g>
<g>
</g>
<g>
</g>
<g>
</g>
<g>
</g>
<g>
</g>
<g>
</g>
<g>
</g>
<g>
</g>
<g>
</g>
<g>
</g>
<g>
</g>
<g>
</g>
<g>
</g>
<g>
</g>
</svg>
