<?xml version="1.0" encoding="iso-8859-1"?>
<!-- Generator: Adobe Illustrator 19.0.0, SVG Export Plug-In . SVG Version: 6.00 Build 0)  -->
<svg version="1.1" id="Capa_1" xmlns="http://www.w3.org/2000/svg" xmlns:xlink="http://www.w3.org/1999/xlink" x="0px" y="0px"
	 viewBox="0 0 512 512" style="enable-background:new 0 0 512 512;" xml:space="preserve">
<path style="fill:#6E6B87;" d="M396,512H116c-2.209,0-4-1.791-4-4V4c0-2.209,1.791-4,4-4h280c2.209,0,4,1.791,4,4v504
	C400,510.209,398.209,512,396,512z"/>
<path style="fill:#625F78;" d="M396,512h-26.857V0H396c2.209,0,4,1.791,4,4v504C400,510.209,398.209,512,396,512z"/>
<rect x="142.86" y="30.905" style="fill:#CAEEFC;" width="226.29" height="450.19"/>
<rect x="338.29" y="30.905" style="fill:#89CEEA;" width="30.857" height="450.19"/>
<g>
	<path style="fill:#444B66;" d="M171.525,88.825c-4.142,0-7.5,3.357-7.5,7.5v72.112c0,3.102,1.883,5.763,4.567,6.904
		c-2.685,1.142-4.567,3.803-4.567,6.904v72.112c0,4.143,3.358,7.5,7.5,7.5s7.5-3.357,7.5-7.5v-72.112
		c0-3.102-1.883-5.763-4.567-6.904c2.685-1.142,4.567-3.803,4.567-6.904V96.325C179.025,92.183,175.667,88.825,171.525,88.825z"/>
	<path style="fill:#444B66;" d="M192.129,88.825c-4.142,0-7.5,3.357-7.5,7.5v72.112c0,3.102,1.883,5.763,4.567,6.904
		c-2.685,1.142-4.567,3.803-4.567,6.904v72.112c0,4.143,3.358,7.5,7.5,7.5s7.5-3.357,7.5-7.5v-72.112
		c0-3.102-1.883-5.763-4.567-6.904c2.685-1.142,4.567-3.803,4.567-6.904V96.325C199.629,92.183,196.271,88.825,192.129,88.825z"/>
	<path style="fill:#444B66;" d="M212.732,88.825c-4.142,0-7.5,3.357-7.5,7.5v72.112c0,3.102,1.883,5.763,4.567,6.904
		c-2.685,1.142-4.567,3.803-4.567,6.904v72.112c0,4.143,3.358,7.5,7.5,7.5s7.5-3.357,7.5-7.5v-72.112
		c0-3.102-1.883-5.763-4.567-6.904c2.685-1.142,4.567-3.803,4.567-6.904V96.325C220.232,92.183,216.875,88.825,212.732,88.825z"/>
	<path style="fill:#444B66;" d="M171.525,333.747c-4.142,0-7.5,3.357-7.5,7.5v72.113c0,4.143,3.358,7.5,7.5,7.5s7.5-3.357,7.5-7.5
		v-72.113C179.025,337.104,175.667,333.747,171.525,333.747z"/>
	<path style="fill:#444B66;" d="M192.129,333.747c-4.142,0-7.5,3.357-7.5,7.5v72.113c0,4.143,3.358,7.5,7.5,7.5s7.5-3.357,7.5-7.5
		v-72.113C199.629,337.104,196.271,333.747,192.129,333.747z"/>
	<path style="fill:#444B66;" d="M212.732,333.747c-4.142,0-7.5,3.357-7.5,7.5v72.113c0,4.143,3.358,7.5,7.5,7.5s7.5-3.357,7.5-7.5
		v-72.113C220.232,337.104,216.875,333.747,212.732,333.747z"/>
	<path style="fill:#444B66;" d="M235.396,255.537c-4.142,0-7.5,3.357-7.5,7.5v72.112c0,4.143,3.358,7.5,7.5,7.5s7.5-3.357,7.5-7.5
		v-72.112C242.896,258.895,239.539,255.537,235.396,255.537z"/>
	<path style="fill:#444B66;" d="M256,255.537c-4.142,0-7.5,3.357-7.5,7.5v72.112c0,4.143,3.358,7.5,7.5,7.5
		c4.143,0,7.5-3.357,7.5-7.5v-72.112C263.5,258.895,260.143,255.537,256,255.537z"/>
	<path style="fill:#444B66;" d="M276.604,255.537c-4.143,0-7.5,3.357-7.5,7.5v72.112c0,4.143,3.357,7.5,7.5,7.5s7.5-3.357,7.5-7.5
		v-72.112C284.104,258.895,280.746,255.537,276.604,255.537z"/>
	<path style="fill:#444B66;" d="M304.772,171.246c-4.143,0-7.5,3.357-7.5,7.5v72.112c0,4.143,3.357,7.5,7.5,7.5s7.5-3.357,7.5-7.5
		v-72.112C312.272,174.604,308.915,171.246,304.772,171.246z"/>
	<path style="fill:#444B66;" d="M325.376,171.246c-4.143,0-7.5,3.357-7.5,7.5v72.112c0,4.143,3.357,7.5,7.5,7.5s7.5-3.357,7.5-7.5
		v-72.112C332.876,174.604,329.519,171.246,325.376,171.246z"/>
	<path style="fill:#444B66;" d="M345.979,171.246c-4.143,0-7.5,3.357-7.5,7.5v72.112c0,4.143,3.357,7.5,7.5,7.5s7.5-3.357,7.5-7.5
		v-72.112C353.479,174.604,350.122,171.246,345.979,171.246z"/>
	<path style="fill:#444B66;" d="M304.772,416.162c-4.143,0-7.5,3.357-7.5,7.5v57.433h15v-57.433
		C312.272,419.52,308.915,416.162,304.772,416.162z"/>
	<path style="fill:#444B66;" d="M325.376,416.162c-4.143,0-7.5,3.357-7.5,7.5v57.433h15v-57.433
		C332.876,419.52,329.519,416.162,325.376,416.162z"/>
	<path style="fill:#444B66;" d="M345.979,416.162c-4.143,0-7.5,3.357-7.5,7.5v57.433h15v-57.433
		C353.479,419.52,350.122,416.162,345.979,416.162z"/>
</g>
<g>
	<rect x="142.86" y="70.57" style="fill:#00B7A0;" width="226.29" height="41.21"/>
	<rect x="142.86" y="152.98" style="fill:#00B7A0;" width="226.29" height="41.21"/>
	<rect x="142.86" y="235.4" style="fill:#00B7A0;" width="226.29" height="41.21"/>
	<rect x="142.86" y="317.81" style="fill:#00B7A0;" width="226.29" height="41.21"/>
</g>
<g>
	<rect x="338.29" y="70.57" style="fill:#049681;" width="30.857" height="41.21"/>
	<rect x="338.29" y="152.98" style="fill:#049681;" width="30.857" height="41.21"/>
	<rect x="338.29" y="235.4" style="fill:#049681;" width="30.857" height="41.21"/>
	<rect x="338.29" y="317.81" style="fill:#049681;" width="30.857" height="41.21"/>
</g>
<rect x="142.86" y="400.23" style="fill:#00B7A0;" width="226.29" height="41.21"/>
<rect x="338.29" y="400.23" style="fill:#049681;" width="30.857" height="41.21"/>
<g>
	<path style="fill:#FAD87C;" d="M183.054,98.671h16.63c4.142,0,7.5-3.357,7.5-7.5s-3.358-7.5-7.5-7.5h-16.63
		c-4.142,0-7.5,3.357-7.5,7.5S178.912,98.671,183.054,98.671z"/>
	<path style="fill:#FAD87C;" d="M183.054,181.086h16.63c4.142,0,7.5-3.357,7.5-7.5s-3.358-7.5-7.5-7.5h-16.63
		c-4.142,0-7.5,3.357-7.5,7.5S178.912,181.086,183.054,181.086z"/>
	<path style="fill:#FAD87C;" d="M264.314,248.5h-16.629c-4.142,0-7.5,3.357-7.5,7.5s3.358,7.5,7.5,7.5h16.629
		c4.143,0,7.5-3.357,7.5-7.5S268.457,248.5,264.314,248.5z"/>
	<path style="fill:#FAD87C;" d="M200.443,330.914h-16.629c-4.142,0-7.5,3.357-7.5,7.5s3.358,7.5,7.5,7.5h16.629
		c4.142,0,7.5-3.357,7.5-7.5S204.585,330.914,200.443,330.914z"/>
	<path style="fill:#FAD87C;" d="M333.691,413.778h-16.63c-4.143,0-7.5,3.357-7.5,7.5s3.357,7.5,7.5,7.5h16.63
		c4.143,0,7.5-3.357,7.5-7.5S337.834,413.778,333.691,413.778z"/>
	<path style="fill:#FAD87C;" d="M317.062,181.086h16.63c4.143,0,7.5-3.357,7.5-7.5s-3.357-7.5-7.5-7.5h-16.63
		c-4.143,0-7.5,3.357-7.5,7.5S312.919,181.086,317.062,181.086z"/>
</g>
<g>
</g>
<g>
</g>
<g>
</g>
<g>
</g>
<g>
</g>
<g>
</g>
<g>
</g>
<g>
</g>
<g>
</g>
<g>
</g>
<g>
</g>
<g>
</g>
<g>
</g>
<g>
</g>
<g>
</g>
</svg>
