<?xml version="1.0" encoding="iso-8859-1"?>
<!-- Generator: Adobe Illustrator 18.0.0, SVG Export Plug-In . SVG Version: 6.00 Build 0)  -->
<!DOCTYPE svg PUBLIC "-//W3C//DTD SVG 1.1//EN" "http://www.w3.org/Graphics/SVG/1.1/DTD/svg11.dtd">
<svg version="1.1" id="Capa_1" xmlns="http://www.w3.org/2000/svg" xmlns:xlink="http://www.w3.org/1999/xlink" x="0px" y="0px"
	 viewBox="0 0 59 59" style="enable-background:new 0 0 59 59;" xml:space="preserve">
<g>
	<g>
		<path style="fill:#556080;" d="M54.892,19H4.108C2.116,19,0.5,17.384,0.5,15.392V3.608C0.5,1.616,2.116,0,4.108,0h50.783
			C56.884,0,58.5,1.616,58.5,3.608v11.783C58.5,17.384,56.884,19,54.892,19z"/>
		<path style="fill:#38454F;" d="M54.892,38H4.108C2.116,38,0.5,36.384,0.5,34.392V22.608C0.5,20.616,2.116,19,4.108,19h50.783
			c1.993,0,3.608,1.616,3.608,3.608v11.783C58.5,36.384,56.884,38,54.892,38z"/>
		<path style="fill:#556080;" d="M54.892,57H4.108C2.116,57,0.5,55.384,0.5,53.392V41.608C0.5,39.616,2.116,38,4.108,38h50.783
			c1.993,0,3.608,1.616,3.608,3.608v11.783C58.5,55.384,56.884,57,54.892,57z"/>
		<circle style="fill:#8697CB;" cx="10" cy="9.5" r="3.5"/>
		<circle style="fill:#8697CB;" cx="49.5" cy="8" r="1"/>
		<circle style="fill:#8697CB;" cx="45.5" cy="8" r="1"/>
		<circle style="fill:#8697CB;" cx="51.5" cy="11" r="1"/>
		<circle style="fill:#8697CB;" cx="47.5" cy="11" r="1"/>
		<circle style="fill:#8697CB;" cx="41.5" cy="8" r="1"/>
		<circle style="fill:#8697CB;" cx="43.5" cy="11" r="1"/>
		<circle style="fill:#8697CB;" cx="37.5" cy="8" r="1"/>
		<circle style="fill:#8697CB;" cx="39.5" cy="11" r="1"/>
		<circle style="fill:#8697CB;" cx="33.5" cy="8" r="1"/>
		<circle style="fill:#8697CB;" cx="35.5" cy="11" r="1"/>
		<circle style="fill:#8697CB;" cx="10" cy="28.5" r="3.5"/>
		<circle style="fill:#8697CB;" cx="49.5" cy="27" r="1"/>
		<circle style="fill:#8697CB;" cx="45.5" cy="27" r="1"/>
		<circle style="fill:#8697CB;" cx="51.5" cy="30" r="1"/>
		<circle style="fill:#8697CB;" cx="47.5" cy="30" r="1"/>
		<circle style="fill:#8697CB;" cx="41.5" cy="27" r="1"/>
		<circle style="fill:#8697CB;" cx="43.5" cy="30" r="1"/>
		<circle style="fill:#8697CB;" cx="37.5" cy="27" r="1"/>
		<circle style="fill:#8697CB;" cx="39.5" cy="30" r="1"/>
		<circle style="fill:#8697CB;" cx="33.5" cy="27" r="1"/>
		<circle style="fill:#8697CB;" cx="35.5" cy="30" r="1"/>
		<circle style="fill:#8697CB;" cx="10" cy="47.5" r="3.5"/>
		<circle style="fill:#8697CB;" cx="49.5" cy="46" r="1"/>
		<circle style="fill:#8697CB;" cx="45.5" cy="46" r="1"/>
		<circle style="fill:#8697CB;" cx="51.5" cy="49" r="1"/>
		<circle style="fill:#8697CB;" cx="47.5" cy="49" r="1"/>
		<circle style="fill:#8697CB;" cx="41.5" cy="46" r="1"/>
		<circle style="fill:#8697CB;" cx="43.5" cy="49" r="1"/>
		<circle style="fill:#8697CB;" cx="37.5" cy="46" r="1"/>
		<circle style="fill:#8697CB;" cx="39.5" cy="49" r="1"/>
		<circle style="fill:#8697CB;" cx="33.5" cy="46" r="1"/>
		<circle style="fill:#8697CB;" cx="35.5" cy="49" r="1"/>
	</g>
	<g>
		<g>
			<path style="fill:#48A0DC;" d="M53.545,48.111C53.494,44.175,50.382,41,46.546,41c-2.568,0-4.806,1.426-6.025,3.546
				c-0.421-0.141-0.87-0.22-1.337-0.22c-2.063,0-3.785,1.492-4.208,3.484C33.221,48.675,32,50.516,32,52.641
				C32,55.589,34.343,58,37.208,58h10.775c0.061,0,0.119-0.007,0.18-0.009c0.06,0.002,0.119,0.009,0.18,0.009h4.31
				c2.667,0,4.849-2.245,4.849-4.989C57.5,50.581,55.788,48.546,53.545,48.111z"/>
			<path style="fill:#B1D3EF;" d="M52.651,59h-4.31c-0.063,0-0.126-0.004-0.188-0.008C48.106,58.996,48.045,59,47.982,59H37.208
				C33.785,59,31,56.147,31,52.642c0-2.262,1.209-4.372,3.116-5.503c0.686-2.235,2.746-3.813,5.066-3.813
				c0.296,0,0.592,0.025,0.884,0.076C41.562,41.286,43.98,40,46.546,40c4.102,0,7.524,3.225,7.954,7.332
				c2.358,0.806,4,3.079,4,5.679C58.5,56.313,55.876,59,52.651,59z M48.114,56.991l0.186,0.006L52.651,57
				c2.122,0,3.849-1.79,3.849-3.989c0-1.917-1.323-3.564-3.146-3.919l-0.799-0.155l-0.011-0.813C52.501,44.747,49.811,42,46.546,42
				c-2.135,0-4.063,1.139-5.158,3.045l-0.409,0.711l-0.777-0.261c-0.332-0.112-0.675-0.169-1.019-0.169
				c-1.54,0-2.898,1.133-3.229,2.692l-0.102,0.475l-0.435,0.214C33.948,49.432,33,50.976,33,52.642C33,55.045,34.888,57,37.208,57
				L48.114,56.991z"/>
		</g>
	</g>
</g>
<g>
</g>
<g>
</g>
<g>
</g>
<g>
</g>
<g>
</g>
<g>
</g>
<g>
</g>
<g>
</g>
<g>
</g>
<g>
</g>
<g>
</g>
<g>
</g>
<g>
</g>
<g>
</g>
<g>
</g>
</svg>
