<?xml version="1.0" encoding="iso-8859-1"?>
<!-- Generator: Adobe Illustrator 19.0.0, SVG Export Plug-In . SVG Version: 6.00 Build 0)  -->
<svg version="1.1" id="Capa_1" xmlns="http://www.w3.org/2000/svg" xmlns:xlink="http://www.w3.org/1999/xlink" x="0px" y="0px"
	 viewBox="0 0 511.998 511.998" style="enable-background:new 0 0 511.998 511.998;" xml:space="preserve">
<g>
	<path style="fill:#454545;" d="M459.855,298.873l-57.598-6.314c-1.937-0.205-3.737-1.067-5.12-2.44l-37.631-37.545l12.049-12.083
		l35.515,35.429l54.612,5.973L459.855,298.873z"/>
	<path style="fill:#454545;" d="M62.206,306.834l-4.949-16.332l47.043-13.994l36.103-36.018l12.049,12.1l-37.631,37.545
		c-1.007,0.998-2.244,1.741-3.601,2.142L62.206,306.834z"/>
</g>
<path style="fill:#62BEFF;" d="M366.921,280.237v1.365h-93.864v-38.74c-6.784,6.195-17.314,5.717-23.509-1.067
	c-6.195-6.784-5.717-17.314,1.067-23.509c6.357-5.802,16.085-5.802,22.442,0v-30.548h36.777c-7.407,5.393-9.045,15.778-3.644,23.184
	c5.393,7.407,15.778,9.045,23.184,3.644s9.045-15.778,3.644-23.184c-1.015-1.399-2.244-2.628-3.644-3.644h37.545V280.237z"/>
<path style="fill:#FFDB6F;" d="M145.062,247.897v-60.158h34.218c-3.157-3.993-4.267-9.233-2.987-14.165
	c1.536-6.238,6.57-11.008,12.885-12.202c8.994-1.766,17.715,4.087,19.481,13.09c0.913,4.668-0.213,9.506-3.098,13.277h33.364v30.548
	c-6.784-6.195-17.314-5.717-23.509,1.067c-6.195,6.784-5.717,17.314,1.067,23.509c6.357,5.802,16.085,5.802,22.442,0v38.74h-93.864
	V247.897z"/>
<path style="fill:#F5D0C7;" d="M460.785,206.597c-16.631,0.017-30.105,13.491-30.122,30.122v13.312
	c0.043,16.605,13.516,30.045,30.122,30.036h0.768c16.58-0.017,30.019-13.457,30.036-30.036v-13.312
	c-0.085-16.725-13.713-30.216-30.437-30.122C461.024,206.588,460.904,206.597,460.785,206.597z"/>
<g>
	<path style="fill:#454545;" d="M447.046,511.994h-25.087v-17.066h15.658l-5.29-53.255c-0.102-1.033-0.017-2.082,0.256-3.089
		l18.773-68.947l16.46,4.488l-18.355,67.411l6.067,61.063c0.478,4.685-2.935,8.874-7.629,9.352
		C447.618,511.977,447.328,511.994,447.046,511.994z"/>
	<path style="fill:#454545;" d="M503.45,511.994h-25.087v-17.066h12.467l-19.268-48.109c-0.93-2.44-1.638-4.958-2.116-7.518
		l-12.023-65.884l16.784-3.072l12.032,65.96c0.29,1.51,0.708,2.987,1.254,4.42l23.893,59.561c1.749,4.377-0.375,9.344-4.744,11.093
		C505.626,511.79,504.542,511.994,503.45,511.994z"/>
	<path style="fill:#454545;" d="M90.024,511.994H64.937c-4.71,0-8.533-3.823-8.533-8.533c0-0.282,0.017-0.572,0.043-0.853
		l6.067-61.062l-18.355-67.411l16.426-4.497l18.773,68.947c0.273,1.007,0.358,2.056,0.256,3.089l-5.248,53.255h15.658V511.994z"/>
	<path style="fill:#454545;" d="M33.62,511.994H8.533c-4.71,0-8.533-3.823-8.533-8.533c0-1.084,0.205-2.167,0.614-3.174
		l23.978-59.817c0.486-1.331,0.862-2.696,1.135-4.087l12.049-66.037l16.785,3.072l-12.04,65.96
		c-0.452,2.449-1.126,4.855-1.997,7.185l-19.37,48.365H33.62V511.994z"/>
</g>
<path style="fill:#00448F;" d="M461.467,281.858h-0.683c-14.89,0.017-26.947,12.074-26.964,26.964v63.059
	c0,4.71,3.823,8.533,8.533,8.533h37.631c4.71,0,8.533-3.823,8.533-8.533v-63.059C488.474,293.915,476.375,281.85,461.467,281.858z"
	/>
<path style="fill:#454545;" d="M460.785,324.779H392.52c-2.765,0-5.35-1.331-6.954-3.584l-40.276-56.659h-12.501V247.47h16.895
	c2.765,0,5.35,1.331,6.954,3.584l40.285,56.659h63.861V324.779z"/>
<path style="fill:#F5D0C7;" d="M50.43,206.597c-16.605,0.043-30.045,13.516-30.036,30.122v13.312
	c0.017,16.58,13.457,30.019,30.036,30.036h0.768c16.605,0.009,30.079-13.431,30.122-30.036v-13.312
	c-0.111-16.75-13.781-30.233-30.523-30.13C50.669,206.588,50.55,206.597,50.43,206.597z"/>
<path style="fill:#00448F;" d="M71.985,291.569l-0.196-0.222c-5.359-6.127-13.132-9.6-21.273-9.489
	c-14.907-0.009-27.016,12.057-27.05,26.964v63.059c0,4.71,3.823,8.533,8.533,8.533H69.63c4.71,0,8.533-3.823,8.533-8.533v-63.059
	C78.163,302.525,75.978,296.424,71.985,291.569z"/>
<path style="fill:#454545;" d="M51.241,324.779l-0.085-17.066l71.874-0.512l31.683-55.465c1.527-2.645,4.36-4.275,7.415-4.267
	h25.599v17.066h-20.641l-31.683,55.465c-1.519,2.628-4.318,4.249-7.347,4.267L51.241,324.779z"/>
<g>
	<rect x="42.665" y="170.664" style="fill:#62BEFF;" width="17.066" height="17.066"/>
	<rect x="42.665" y="136.532" style="fill:#62BEFF;" width="17.066" height="17.066"/>
	<rect x="42.665" y="102.4" style="fill:#62BEFF;" width="17.066" height="17.066"/>
	<rect x="42.665" y="68.267" style="fill:#62BEFF;" width="17.066" height="17.066"/>
	<rect x="42.665" y="34.135" style="fill:#62BEFF;" width="17.066" height="17.066"/>
	<rect x="42.665" y="0.004" style="fill:#62BEFF;" width="17.066" height="17.066"/>
	<rect x="76.797" y="0.004" style="fill:#62BEFF;" width="17.066" height="17.066"/>
	<rect x="110.93" y="0.004" style="fill:#62BEFF;" width="17.066" height="17.066"/>
	<rect x="145.062" y="0.004" style="fill:#62BEFF;" width="17.066" height="17.066"/>
	<rect x="179.194" y="0.004" style="fill:#62BEFF;" width="17.066" height="17.066"/>
	<rect x="213.326" y="0.004" style="fill:#62BEFF;" width="17.066" height="17.066"/>
	<rect x="247.458" y="0.004" style="fill:#62BEFF;" width="17.066" height="17.066"/>
</g>
<g>
	<rect x="281.591" y="0.004" style="fill:#FFDB6F;" width="17.066" height="17.066"/>
	<rect x="315.723" y="0.004" style="fill:#FFDB6F;" width="17.066" height="17.066"/>
	<rect x="349.855" y="0.004" style="fill:#FFDB6F;" width="17.066" height="17.066"/>
	<rect x="383.987" y="0.004" style="fill:#FFDB6F;" width="17.066" height="17.066"/>
	<rect x="418.119" y="0.004" style="fill:#FFDB6F;" width="17.066" height="17.066"/>
	<rect x="452.252" y="0.004" style="fill:#FFDB6F;" width="17.066" height="17.066"/>
	<rect x="452.252" y="34.135" style="fill:#FFDB6F;" width="17.066" height="17.066"/>
	<rect x="452.252" y="68.267" style="fill:#FFDB6F;" width="17.066" height="17.066"/>
	<rect x="452.252" y="102.4" style="fill:#FFDB6F;" width="17.066" height="17.066"/>
	<rect x="452.252" y="136.532" style="fill:#FFDB6F;" width="17.066" height="17.066"/>
	<rect x="452.252" y="170.664" style="fill:#FFDB6F;" width="17.066" height="17.066"/>
</g>
<g>
</g>
<g>
</g>
<g>
</g>
<g>
</g>
<g>
</g>
<g>
</g>
<g>
</g>
<g>
</g>
<g>
</g>
<g>
</g>
<g>
</g>
<g>
</g>
<g>
</g>
<g>
</g>
<g>
</g>
</svg>
