<?xml version="1.0" encoding="iso-8859-1"?>
<!-- Generator: Adobe Illustrator 19.0.0, SVG Export Plug-In . SVG Version: 6.00 Build 0)  -->
<svg version="1.1" id="Capa_1" xmlns="http://www.w3.org/2000/svg" xmlns:xlink="http://www.w3.org/1999/xlink" x="0px" y="0px"
	 viewBox="0 0 480 480" style="enable-background:new 0 0 480 480;" xml:space="preserve">
<path style="fill:#29485A;" d="M24,348h432c8.837,0,16,7.163,16,16v48c0,8.837-7.163,16-16,16H24c-8.837,0-16-7.163-16-16v-48
	C8,355.163,15.163,348,24,348z"/>
<path style="fill:#06AAE9;" d="M24,236h432c8.837,0,16,7.163,16,16v48c0,8.837-7.163,16-16,16H24c-8.837,0-16-7.163-16-16v-48
	C8,243.163,15.163,236,24,236z"/>
<path style="fill:#29485A;" d="M24,124h432c8.837,0,16,7.163,16,16v48c0,8.837-7.163,16-16,16H24c-8.837,0-16-7.163-16-16v-48
	C8,131.163,15.163,124,24,124z"/>
<path style="fill:#06AAE9;" d="M24,12h432c8.837,0,16,7.163,16,16v48c0,8.837-7.163,16-16,16H24c-8.837,0-16-7.163-16-16V28
	C8,19.163,15.163,12,24,12z"/>
<circle cx="416" cy="388" r="16"/>
<path d="M32,388c0,4.418,3.582,8,8,8h256c4.418,0,8-3.582,8-8s-3.582-8-8-8H40C35.582,380,32,383.582,32,388z"/>
<path d="M328,396h32c4.418,0,8-3.582,8-8s-3.582-8-8-8h-32c-4.418,0-8,3.582-8,8S323.582,396,328,396z"/>
<circle cx="416" cy="276" r="16"/>
<path d="M296,268H40c-4.418,0-8,3.582-8,8s3.582,8,8,8h256c4.418,0,8-3.582,8-8S300.418,268,296,268z"/>
<path d="M360,268h-32c-4.418,0-8,3.582-8,8s3.582,8,8,8h32c4.418,0,8-3.582,8-8S364.418,268,360,268z"/>
<circle cx="416" cy="164" r="16"/>
<path d="M32,164c0,4.418,3.582,8,8,8h256c4.418,0,8-3.582,8-8s-3.582-8-8-8H40C35.582,156,32,159.582,32,164z"/>
<path d="M328,172h32c4.418,0,8-3.582,8-8s-3.582-8-8-8h-32c-4.418,0-8,3.582-8,8S323.582,172,328,172z"/>
<path d="M456,4H24C10.745,4,0,14.745,0,28v48c0,13.255,10.745,24,24,24h8v16h-8c-13.255,0-24,10.745-24,24v48
	c0,13.255,10.745,24,24,24h320v16H24c-13.255,0-24,10.745-24,24v48c0,13.255,10.745,24,24,24h8v16h-8c-13.255,0-24,10.745-24,24v48
	c0,13.255,10.745,24,24,24h320v24H8c-4.418,0-8,3.582-8,8s3.582,8,8,8h464c4.418,0,8-3.582,8-8s-3.582-8-8-8h-16v-24
	c13.255,0,24-10.745,24-24v-48c0-13.255-10.745-24-24-24H144v-16h312c13.255,0,24-10.745,24-24v-48c0-13.255-10.745-24-24-24v-16
	c13.255,0,24-10.745,24-24v-48c0-13.255-10.745-24-24-24H144v-16h312c13.255,0,24-10.745,24-24V28C480,14.745,469.255,4,456,4z
	 M48,100h16v16H48V100z M96,100v16H80v-16H96z M360,212h16v16h-16V212z M408,212v16h-16v-16H408z M48,324h16v16H48V324z M96,324v16
	H80v-16H96z M360,460v-24h16v24H360z M392,460v-24h16v24H392z M440,460h-16v-24h16V460z M464,364v48c0,4.418-3.582,8-8,8H24
	c-4.418,0-8-3.582-8-8v-48c0-4.418,3.582-8,8-8h432C460.418,356,464,359.582,464,364z M128,340h-16v-16h16V340z M464,252v48
	c0,4.418-3.582,8-8,8H24c-4.418,0-8-3.582-8-8v-48c0-4.418,3.582-8,8-8h432C460.418,244,464,247.582,464,252z M440,228h-16v-16h16
	V228z M464,140v48c0,4.418-3.582,8-8,8H24c-4.418,0-8-3.582-8-8v-48c0-4.418,3.582-8,8-8h432C460.418,132,464,135.582,464,140z
	 M128,116h-16v-16h16V116z M464,76c0,4.418-3.582,8-8,8H24c-4.418,0-8-3.582-8-8V28c0-4.418,3.582-8,8-8h432c4.418,0,8,3.582,8,8V76
	z"/>
<circle cx="416" cy="52" r="16"/>
<path d="M296,44H40c-4.418,0-8,3.582-8,8s3.582,8,8,8h256c4.418,0,8-3.582,8-8S300.418,44,296,44z"/>
<path d="M360,44h-32c-4.418,0-8,3.582-8,8s3.582,8,8,8h32c4.418,0,8-3.582,8-8S364.418,44,360,44z"/>
<g>
</g>
<g>
</g>
<g>
</g>
<g>
</g>
<g>
</g>
<g>
</g>
<g>
</g>
<g>
</g>
<g>
</g>
<g>
</g>
<g>
</g>
<g>
</g>
<g>
</g>
<g>
</g>
<g>
</g>
</svg>
