<svg height="512pt" viewBox="-46 0 512 512" width="512pt" xmlns="http://www.w3.org/2000/svg"><path d="m420 15v347l-150 150h-255c-8.402344 0-15-6.601562-15-15v-482c0-8.402344 6.597656-15 15-15h390c8.402344 0 15 6.597656 15 15zm0 0" fill="#faecd8"/><path d="m420 15v347l-150 150h-60v-512h195c8.402344 0 15 6.597656 15 15zm0 0" fill="#f8e5ca"/><path d="m345 60h-270c-8.402344 0-15 6.597656-15 15v62c0 8.398438 6.597656 15 15 15h270c8.402344 0 15-6.601562 15-15v-62c0-8.402344-6.597656-15-15-15zm0 0" fill="#f4d7af"/><path d="m360 197c0 8.398438-6.597656 15-15 15h-270c-8.402344 0-15-6.601562-15-15 0-8.402344 6.597656-15 15-15h270c8.402344 0 15 6.597656 15 15zm0 0" fill="#f4d7af"/><path d="m345 272h-90c-8.289062 0-15-6.710938-15-15s6.710938-15 15-15h90c8.289062 0 15 6.710938 15 15s-6.710938 15-15 15zm0 0" fill="#f1c992"/><path d="m345 332h-90c-8.289062 0-15-6.710938-15-15s6.710938-15 15-15h90c8.289062 0 15 6.710938 15 15s-6.710938 15-15 15zm0 0" fill="#f1c992"/><path d="m180 368.898438v68.101562c0 5.097656-2.699219 9.898438-7.199219 12.898438-4.199219 2.699218-9.902343 3-14.398437.601562l-23.402344-11.699219-23.402344 11.699219c-4.496094 2.097656-10.199218 2.097656-14.398437-.601562-4.5-3-7.199219-7.800782-7.199219-12.898438v-68.101562c0-8.101563 6.597656-15 15-15h60c8.402344 0 15 6.902343 15 15zm0 0" fill="#cb671b"/><path d="m180 368.898438v68.101562c0 5.097656-2.699219 9.898438-7.199219 12.898438-4.199219 2.699218-9.902343 3-14.398437.601562l-23.402344-11.699219v-84.902343h30c8.402344 0 15 6.902343 15 15zm0 0" fill="#bc5f19"/><path d="m135 242c-41.398438 0-75 33.601562-75 75s33.601562 75 75 75 75-33.601562 75-75-33.601562-75-75-75zm0 0" fill="#ffe470"/><path d="m210 317c0 41.398438-33.601562 75-75 75v-150c41.398438 0 75 33.601562 75 75zm0 0" fill="#ffd400"/><path d="m135 272c-24.902344 0-45 20.097656-45 45 0 24.898438 20.097656 45 45 45s45-20.101562 45-45c0-24.902344-20.097656-45-45-45zm0 0" fill="#fdbf00"/><path d="m180 317c0 24.898438-20.097656 45-45 45v-90c24.902344 0 45 20.097656 45 45zm0 0" fill="#ff9f00"/><g fill="#f1c992"><path d="m360 197c0 8.398438-6.597656 15-15 15h-135v-30h135c8.402344 0 15 6.597656 15 15zm0 0"/><path d="m360 75v62c0 8.398438-6.597656 15-15 15h-135v-92h135c8.402344 0 15 6.597656 15 15zm0 0"/><path d="m295.605469 507.605469 120-120c2.8125-2.8125 4.394531-6.621094 4.394531-10.605469v-15h-135c-8.289062 0-15 6.710938-15 15v135h15c3.984375 0 7.792969-1.582031 10.605469-4.394531zm0 0"/></g></svg>