<?xml version="1.0" encoding="iso-8859-1"?>
<!-- Generator: Adobe Illustrator 19.0.0, SVG Export Plug-In . SVG Version: 6.00 Build 0)  -->
<svg version="1.1" id="Layer_1" xmlns="http://www.w3.org/2000/svg" xmlns:xlink="http://www.w3.org/1999/xlink" x="0px" y="0px"
	 viewBox="0 0 462.042 462.042" style="enable-background:new 0 0 462.042 462.042;" xml:space="preserve">
<path style="fill:#D8D9DD;" d="M226.02,407.014v-20c76.93,0,139.517-62.587,139.517-139.516c0-76.93-62.587-139.517-139.517-139.517
	v-20c87.958,0,159.517,71.559,159.517,159.517C385.536,335.455,313.979,407.014,226.02,407.014z"/>
<rect x="76.505" y="345.68" style="fill:#90C5FF;" width="183.78" height="20"/>
<path style="fill:#59595A;" d="M261.033,345.68h-31.606c-27.112,0-49.091,21.979-49.091,49.091l0,0h129.788l0,0
	C310.124,367.659,288.145,345.68,261.033,345.68z"/>
<polygon style="fill:#D8D9DD;" points="239.725,84.253 249.365,54.557 190.354,35.403 180.715,65.1 169.104,61.331 100.135,273.822 
	182.367,300.513 251.337,88.021 "/>
<rect x="98.035" y="277.177" transform="matrix(-0.9512 -0.3087 0.3087 -0.9512 186.9814 603.9368)" style="fill:#59595A;" width="86.458" height="20.001"/>
<rect x="111.656" y="239.203" transform="matrix(-0.9512 -0.3087 0.3087 -0.9512 226.5135 526.2424)" style="fill:#59595A;" width="86.457" height="12"/>
<polygon style="fill:#59595A;" points="260.855,19.153 201.845,0 198.141,11.414 206.843,14.239 199.057,38.228 240.661,51.732 
	248.447,27.743 257.151,30.567 "/>
<polygon style="opacity:0.3;fill:#5B5B5F;enable-background:new    ;" points="239.725,84.253 249.365,54.557 240.661,51.732 
	248.768,26.755 257.471,29.579 260.535,20.142 231.029,10.565 138.699,295.032 179.813,308.377 182.367,300.512 182.367,300.513 
	251.337,88.021 "/>
<rect x="180.487" y="66.609" transform="matrix(-0.9512 -0.3087 0.3087 -0.9512 390.8494 203.3206)" style="opacity:0.4;fill:#5B5B5F;enable-background:new    ;" width="62.042" height="8.268"/>
<rect x="76.505" y="422.042" style="fill:#59595A;" width="299.032" height="40"/>
<rect x="92.521" y="392.042" style="fill:#D8D9DD;" width="266.999" height="30"/>
<circle style="fill:#C8523B;" cx="226.02" cy="112.133" r="40.494"/>
<path style="opacity:0.4;fill:#5B5B5F;enable-background:new    ;" d="M226.02,71.639v80.988c22.364,0,40.494-18.13,40.494-40.494
	C266.515,89.769,248.384,71.639,226.02,71.639z"/>
<g>
</g>
<g>
</g>
<g>
</g>
<g>
</g>
<g>
</g>
<g>
</g>
<g>
</g>
<g>
</g>
<g>
</g>
<g>
</g>
<g>
</g>
<g>
</g>
<g>
</g>
<g>
</g>
<g>
</g>
</svg>
