<?xml version="1.0" encoding="iso-8859-1"?>
<!-- Generator: Adobe Illustrator 19.0.0, SVG Export Plug-In . SVG Version: 6.00 Build 0)  -->
<svg version="1.1" id="Capa_1" xmlns="http://www.w3.org/2000/svg" xmlns:xlink="http://www.w3.org/1999/xlink" x="0px" y="0px"
	 viewBox="0 0 480 480" style="enable-background:new 0 0 480 480;" xml:space="preserve">
<path style="fill:#29ABE2;" d="M368,292.015h8c53.019-0.014,95.989-43.005,95.975-96.025c-0.014-53.019-43.005-95.989-96.025-95.975
	c-6.593,0.002-13.169,0.683-19.622,2.032c-16.515-68.7-85.596-111.004-154.296-94.488C144.509,21.387,103.97,72.853,104,132.015
	c0,0.544,0.072,1.072,0.08,1.6c-43.299-8.792-85.527,19.182-94.319,62.481s19.182,85.527,62.481,94.319
	c5.187,1.053,10.465,1.589,15.758,1.6H368z"/>
<rect x="136" y="220.015" style="fill:#B3B3B3;" width="208" height="48"/>
<g>
	<rect x="112" y="164.015" style="fill:#666666;" width="256" height="64"/>
	<polygon style="fill:#666666;" points="160,324.015 112,324.015 112,260.015 368,260.015 368,324.015 320,324.015 	"/>
</g>
<g>
	<rect x="136" y="188.015" style="fill:#FBB03B;" width="16" height="16"/>
	<rect x="168" y="188.015" style="fill:#FBB03B;" width="16" height="16"/>
</g>
<g>
	<rect x="64" y="460.015" style="fill:#808080;" width="16" height="16"/>
	<rect x="32" y="460.015" style="fill:#808080;" width="16" height="16"/>
	<rect y="460.015" style="fill:#808080;" width="16" height="16"/>
	<rect x="64" y="412.015" style="fill:#808080;" width="16" height="16"/>
	<rect x="32" y="412.015" style="fill:#808080;" width="16" height="16"/>
	<rect y="412.015" style="fill:#808080;" width="16" height="16"/>
	<path style="fill:#808080;" d="M176,412.015H96v16h80v32H96v16h88c4.418,0,8-3.582,8-8v-136h-16V412.015z"/>
	<rect x="400" y="460.015" style="fill:#808080;" width="16" height="16"/>
	<rect x="432" y="460.015" style="fill:#808080;" width="16" height="16"/>
	<rect x="464" y="460.015" style="fill:#808080;" width="16" height="16"/>
	<path style="fill:#808080;" d="M304,332.015h-16v136c0,4.418,3.582,8,8,8h88v-16h-80v-32h80v-16h-80V332.015z"/>
	<rect x="400" y="412.015" style="fill:#808080;" width="16" height="16"/>
	<rect x="432" y="412.015" style="fill:#808080;" width="16" height="16"/>
	<rect x="464" y="412.015" style="fill:#808080;" width="16" height="16"/>
</g>
<g>
	<circle style="fill:#FBB03B;" cx="184" cy="324.015" r="24"/>
	<circle style="fill:#FBB03B;" cx="296" cy="324.015" r="24"/>
</g>
<g>
</g>
<g>
</g>
<g>
</g>
<g>
</g>
<g>
</g>
<g>
</g>
<g>
</g>
<g>
</g>
<g>
</g>
<g>
</g>
<g>
</g>
<g>
</g>
<g>
</g>
<g>
</g>
<g>
</g>
</svg>
