<?xml version="1.0" encoding="iso-8859-1"?>
<!-- Generator: Adobe Illustrator 19.0.0, SVG Export Plug-In . SVG Version: 6.00 Build 0)  -->
<svg version="1.1" id="Capa_1" xmlns="http://www.w3.org/2000/svg" xmlns:xlink="http://www.w3.org/1999/xlink" x="0px" y="0px"
	 viewBox="0 0 422.419 422.419" style="enable-background:new 0 0 422.419 422.419;" xml:space="preserve">
<path style="fill:#FFFFFF;" d="M296.816,204.41c0-2.4,0-4,0-4.8c12.8-14.4,18.4-28,16.8-40c-0.8-7.2-4.8-13.6-10.4-17.6l-2.4-2.4
	h-3.2c-5.6,0.8-11.2,0.8-16,0.8c-29.6,0-59.2-8-84.8-22.4l-4.8-2.4l-4,4c-21.6,18.4-56.8,20-67.2,20h-3.2l-2.4,1.6
	c-5.6,4.8-9.6,11.2-10.4,18.4c-1.6,12,4,25.6,16.8,40c0,1.6,0,44.8,27.2,72c16,15.2,36.8,23.2,58.4,22.4h4
	c21.6,0.8,43.2-7.2,58.4-22.4c12-12.8,20-28.8,24-46.4l4-17.6l-0.8,0.8V204.41z M226.416,260.41c-8,0-15.2-6.4-15.2-15.2
	c0-8,6.4-15.2,15.2-15.2c4,0,8,1.6,10.4,4l4,4l0,0l0.8,5.6v1.6C241.616,254.01,235.216,260.41,226.416,260.41
	C227.216,261.21,226.416,261.21,226.416,260.41L226.416,260.41z"/>
<g>
	<path style="fill:#2AC6BE;" d="M282.416,141.21c-32,0-63.2-8.8-90.4-25.6c-18.4,19.2-48,23.2-64.8,24.8l-8.8,0.8l0.8-8.8
		c4.8-66.4,49.6-76,75.2-76c4.8,0,10.4,0,15.2,1.6l0,0c4.8-0.8,10.4-1.6,15.2-1.6c26.4,0,70.4,10.4,75.2,77.6l0.8,8l-8,0.8
		C289.616,141.21,285.616,141.21,282.416,141.21L282.416,141.21z"/>
	<circle style="fill:#2AC6BE;" cx="226.416" cy="246.01" r="15.2"/>
</g>
<g>
	<path style="fill:#B7F3F9;" d="M5.616,406.01l0.8-8.8c6.4-64,100.8-90.4,140.8-98.4l9.6-2.4v24c0,13.6,19.2,24.8,44.8,26.4l8,0.8
		v58.4H5.616z"/>
	<path style="fill:#B7F3F9;" d="M209.616,406.01v-58.4l7.2-0.8c25.6-1.6,44.8-12.8,44.8-26.4v-24l9.6,2.4
		c40,8,134.4,34.4,140.8,98.4l0.8,8.8H209.616z"/>
</g>
<path style="fill:#FFFFFF;" d="M209.616,346.81c-28.8,0-52.8-12-52.8-26.4v-40l11.2,5.6c12,5.6,25.6,8,39.2,8h4
	c13.6,0,26.4-2.4,39.2-8l11.2-5.6v40C262.416,334.81,238.416,346.81,209.616,346.81z"/>
<path style="fill:#082B33;" d="M270.416,290.01v-7.2c2.4-1.6,4-3.2,6.4-5.6c15.2-16.8,24.8-38.4,28-60.8
	c13.6-2.4,26.4-9.6,34.4-20.8c12-16,12.8-40,3.2-69.6c-0.8-1.6-1.6-3.2-3.2-4l-4-3.2c0.8-26.4-8.8-52.8-25.6-72.8
	c-21.6-24-54.4-36.8-98.4-36.8l0,0c-44,0-76.8,12.8-98.4,36c-17.6,20-26.4,46.4-25.6,72.8l-4.8,3.2c-1.6,0.8-2.4,2.4-3.2,4
	c-9.6,29.6-8.8,52.8,3.2,69.6c8.8,11.2,20.8,18.4,34.4,20.8c2.4,22.4,12,44,28,60.8c1.6,1.6,4,4,6.4,5.6v7.2
	c-30.4,5.6-152.8,34.4-151.2,116c0,4.8,3.2,8,8,8h406.4c4.8,0,8-3.2,8-8C423.216,324.41,300.816,295.61,270.416,290.01z
	 M94.416,186.01c-8-12-8.8-29.6-1.6-52.8l5.6-4c2.4-1.6,4-4.8,3.2-7.2c-1.6-24,6.4-47.2,21.6-65.6c18.4-20.8,47.2-31.2,86.4-31.2
	s68,10.4,86.4,31.2c15.2,18.4,23.2,41.6,21.6,65.6c0,3.2,0.8,5.6,3.2,7.2l5.6,4c7.2,23.2,6.4,40.8-1.6,52.8
	c-4,5.6-10.4,10.4-16.8,12c9.6-11.2,14.4-25.6,12.8-40c-1.6-8.8-6.4-16.8-12.8-22.4c-3.2-80-59.2-88.8-84-88.8
	c-4.8,0-10.4,0-15.2,0.8c-4.8-0.8-10.4-0.8-15.2-0.8c-24,0-80,8.8-84,88.8c-7.2,5.6-11.2,13.6-12.8,22.4c-1.6,14.4,3.2,28.8,12.8,40
	C104.016,196.41,97.616,191.61,94.416,186.01L94.416,186.01z M292.816,132.41c-33.6,1.6-67.2-6.4-96-24c-3.2-2.4-8-1.6-10.4,0.8
	c-16,16.8-44.8,20.8-59.2,22.4c4-56.8,38.4-68.8,67.2-68.8c4.8,0,8.8,0,13.6,0.8c0.8,0,2.4,0,3.2,0c4.8-0.8,8.8-0.8,13.6-0.8
	C253.616,62.81,288.016,75.61,292.816,132.41L292.816,132.41z M130.416,199.61c0-1.6-0.8-4-2.4-5.6c-11.2-12.8-16-24-14.4-33.6
	c0.8-5.6,3.2-10.4,7.2-13.6c10.4,0,48-2.4,72-22.4c27.2,15.2,57.6,24,88.8,24c5.6,0,10.4,0,16.8-0.8c4,3.2,6.4,8,7.2,12.8
	c1.6,9.6-4,20.8-14.4,33.6c-1.6,1.6-2.4,3.2-2.4,5.6c0,0,0,1.6,0,4l-46.4,24.8c-9.6-8.8-24-8-32.8,0.8c-8.8,9.6-8,24,0.8,32.8
	c9.6,8.8,24,8,32.8-0.8c4-4,6.4-9.6,6.4-16c0-0.8,0-1.6,0-2.4l36.8-20c-3.2,16-10.4,30.4-21.6,42.4c-14.4,13.6-33.6,20.8-52.8,20h-4
	c-20,0.8-38.4-6.4-52.8-20C129.616,241.21,130.416,200.41,130.416,199.61L130.416,199.61z M233.616,246.01c0,4-3.2,7.2-7.2,7.2
	s-7.2-3.2-7.2-7.2s3.2-7.2,7.2-7.2l0,0C230.416,238.81,233.616,242.01,233.616,246.01z M201.616,398.01h-187.2
	c6.4-60,104-84.8,134.4-92v14.4c0,18.4,22.4,32,52.8,34.4V398.01z M164.816,320.41v-27.2c13.6,6.4,28,9.6,42.4,8.8h4
	c14.4,0,28.8-2.4,42.4-8.8v27.2c0,8-17.6,18.4-44.8,18.4S164.816,327.61,164.816,320.41L164.816,320.41z M217.616,398.01v-43.2
	c30.4-2.4,52.8-16,52.8-34.4v-14.4c30.4,6.4,128,31.2,134.4,92H217.616z"/>
<g>
</g>
<g>
</g>
<g>
</g>
<g>
</g>
<g>
</g>
<g>
</g>
<g>
</g>
<g>
</g>
<g>
</g>
<g>
</g>
<g>
</g>
<g>
</g>
<g>
</g>
<g>
</g>
<g>
</g>
</svg>
