<?xml version="1.0" encoding="iso-8859-1"?>
<!-- Generator: Adobe Illustrator 19.0.0, SVG Export Plug-In . SVG Version: 6.00 Build 0)  -->
<svg version="1.1" id="Capa_1" xmlns="http://www.w3.org/2000/svg" xmlns:xlink="http://www.w3.org/1999/xlink" x="0px" y="0px"
	 viewBox="0 0 464 464" style="enable-background:new 0 0 464 464;" xml:space="preserve">
<path style="fill:#2276BB;" d="M242.544,6.472L232,0l-10.544,6.472C174.427,35.453,118.127,45.439,64,34.4v245.92
	c-0.012,30.171,8.015,59.801,23.256,85.84c17.464,29.924,43.938,53.564,75.64,67.544L232,464l69.104-30.296
	c3.701-1.6,7.333-3.357,10.896-5.272v-0.048c26.917-14.348,49.32-35.89,64.712-62.224c15.258-26.045,23.296-55.687,23.288-85.872
	V34.4C345.873,45.439,289.573,35.453,242.544,6.472z"/>
<path style="fill:#1D5C88;" d="M232,48l-8.36,5.136c-37.303,22.976-81.955,30.885-124.88,22.12v195.04
	c-0.025,23.935,6.326,47.445,18.4,68.112c13.854,23.741,34.853,42.5,60,53.6L232,416V48z"/>
<path style="fill:#59CE41;" d="M152,248l64,64l136-136l-32-32L216,248l-32-32L152,248z"/>
<g>
</g>
<g>
</g>
<g>
</g>
<g>
</g>
<g>
</g>
<g>
</g>
<g>
</g>
<g>
</g>
<g>
</g>
<g>
</g>
<g>
</g>
<g>
</g>
<g>
</g>
<g>
</g>
<g>
</g>
</svg>
