<?xml version="1.0"?>
<svg xmlns="http://www.w3.org/2000/svg" viewBox="0 0 32 32">
    <path style="line-height:normal;text-indent:0;text-align:start;text-decoration-line:none;text-decoration-style:solid;text-decoration-color:#000;text-transform:none;block-progression:tb;isolation:auto;mix-blend-mode:normal" d="M 15 7 C 12.308671 7 9.2671239 7.134388 6.7949219 7.671875 C 5.5588209 7.9406185 4.461128 8.3008919 3.5800781 8.8789062 C 2.8350348 9.3676934 2.224817 10.10968 2.0527344 11 L 2 11 L 2 11.5 L 2 12.5 L 2 14 C 2 14.758309 2.301587 15.458385 2.7636719 15.917969 C 2.8785227 16.032198 2.9998991 16.131834 3.125 16.220703 L 5.2089844 25 L 12.947266 25 L 12.613281 26 L 13 26 L 13 27 L 20 27 L 20 25 L 23.78125 25 L 25.884766 16.587891 L 30 13.5 L 30 12 L 30 11.876953 L 29.349609 9.2714844 C 29.016393 7.9416054 27.809385 7 26.4375 7 L 15 7 z M 16.820312 9 L 22.179688 9 L 22.78125 12 L 16.21875 12 L 16.820312 9 z M 24.21875 9 L 26.4375 9 C 26.901615 9 27.29542 9.3076915 27.408203 9.7578125 L 27.96875 12 L 26 12 L 24.820312 12 L 24.21875 9 z M 14.779297 9.0039062 L 14.179688 12 L 8 12 C 7.3382231 12 6.1229385 11.964905 5.1660156 11.785156 C 4.6875542 11.695282 4.2759346 11.557613 4.0820312 11.447266 C 4.0201514 11.412051 4.0229376 11.419441 4.0097656 11.416016 C 4.0327042 11.107459 4.1824412 10.874439 4.6757812 10.550781 C 5.2147314 10.197202 6.1208041 9.8641315 7.2207031 9.625 C 9.3601648 9.1598548 12.213267 9.0118701 14.779297 9.0039062 z M 4 13.558594 C 4.2602739 13.635883 4.5253554 13.698998 4.796875 13.75 C 5.9947021 13.975001 7.2807769 14 8 14 L 26 14 L 24.666016 15 L 18 15 L 7 15 C 6.4097926 15 5.4988149 15.009105 4.8476562 14.832031 C 4.5220769 14.743494 4.289087 14.614635 4.1738281 14.5 C 4.0585692 14.385365 4 14.304191 4 14 L 4 13.558594 z M 5.3515625 16.943359 C 6.0387407 17.016517 6.6534608 17 7 17 L 18 17 L 23.71875 17 L 22.21875 23 L 19.388672 23 L 17.720703 18 L 15.279297 18 L 13.613281 23 L 6.7910156 23 L 6.3164062 21 L 11 21 L 11 19 L 5.8398438 19 L 5.3515625 16.943359 z M 16.5 20.662109 L 17.945312 25 L 15.054688 25 L 16.5 20.662109 z" font-weight="400" font-family="sans-serif" white-space="normal" overflow="visible"/>
</svg>
