<svg height="408pt" viewBox="-4 0 408 408" width="408pt" xmlns="http://www.w3.org/2000/svg"><path d="m248 40h120v160h-120zm0 0" fill="#8dc79d"/><path d="m288 72h48v40h-48zm0 0" fill="#e4e4e2"/><path d="m32 0h128v184h-128zm0 0" fill="#8aced8"/><path d="m64 32h48v40h-48zm0 0" fill="#e4e4e2"/><path d="m144 0h112v200h-112zm0 0" fill="#e06661"/><path d="m176 32h48v40h-48zm0 0" fill="#e4e4e2"/><path d="m400 408h-400v-272c0-8.835938 7.164062-16 16-16h86.113281c6.058594 0 11.601563 3.425781 14.3125 8.847656l27.574219 55.152344h240c8.835938 0 16 7.164062 16 16zm0 0" fill="#f7ba61"/><path d="m240 264h112v96h-112zm0 0" fill="#e4e4e2"/><path d="m264 288h64v16h-64zm0 0" fill="#cbcbcb"/><path d="m264 320h64v16h-64zm0 0" fill="#cbcbcb"/><g fill="#ea9d2d"><path d="m24 352h16v16h-16zm0 0"/><path d="m56 352h16v16h-16zm0 0"/><path d="m88 352h16v16h-16zm0 0"/></g></svg>