<?xml version="1.0" encoding="iso-8859-1"?>
<!-- Generator: Adobe Illustrator 19.0.0, SVG Export Plug-In . SVG Version: 6.00 Build 0)  -->
<svg version="1.1" id="Capa_1" xmlns="http://www.w3.org/2000/svg" xmlns:xlink="http://www.w3.org/1999/xlink" x="0px" y="0px"
	 viewBox="0 0 464.237 464.237" style="enable-background:new 0 0 464.237 464.237;" xml:space="preserve">
<path style="fill:#48A6E8;" d="M168,164.222c-1.328-0.104-2.656-0.104-4-0.104c-41.859-0.115-75.885,33.725-75.999,75.584
	c-0.019,6.949,0.918,13.867,2.783,20.56c-0.936,0-1.848-0.144-2.784-0.144c-48.601,0-88,39.399-88,88s39.399,88,88,88h300
	c41.973,0.131,76.106-33.79,76.236-75.763c0.131-41.973-33.79-76.106-75.763-76.236c-7.037-0.022-14.043,0.934-20.817,2.839
	c0.2-2.256,0.344-4.528,0.344-6.84c0.001-40.42-31.636-73.769-72-75.896c-1.328-0.104-2.656-0.104-4-0.104L168,164.222z"/>
<path style="fill:#B5B5B5;" d="M168,28.118h128v278H168V28.118z"/>
<circle style="fill:#5B5B5B;" cx="232" cy="260.118" r="8"/>
<circle style="fill:#FFCB5A;" cx="232" cy="204.118" r="8"/>
<circle style="fill:#03AA6F;" cx="232" cy="172.118" r="8"/>
<path style="fill:#D95354;" d="M218.752,289.254c-16.087-7.317-23.198-26.289-15.881-42.377s26.289-23.198,42.377-15.881
	c11.418,5.193,18.749,16.578,18.752,29.122c0.022,7.043-2.3,13.894-6.6,19.472l-12.696-9.744c5.372-7.016,4.039-17.059-2.977-22.431
	c-7.016-5.372-17.059-4.039-22.431,2.977c-2.137,2.792-3.296,6.21-3.296,9.725c0.009,6.276,3.675,11.97,9.384,14.576
	L218.752,289.254z"/>
<g>
	<path style="fill:#5B5B5B;" d="M208,60.118h48v16h-48V60.118z"/>
	<path style="fill:#5B5B5B;" d="M192,92.118h80v16h-80V92.118z"/>
	<path style="fill:#5B5B5B;" d="M192,124.118h80v16h-80V124.118z"/>
</g>
<path style="fill:#48A6E8;" d="M368,364.118c0.297-21.793-17.128-39.701-38.922-39.999c-3.948-0.054-7.882,0.485-11.67,1.599
	c-10.131-36.135-47.638-57.216-83.773-47.085c-20.104,5.636-36.5,20.202-44.467,39.501c-27.614-18.318-64.849-10.783-83.167,16.831
	c-6.52,9.828-9.998,21.359-10.001,33.153"/>
<path style="fill:#2B77AD;" d="M104,368.118H88c-0.003-37.555,30.439-68.003,67.994-68.006c4.57,0,9.128,0.46,13.606,1.374
	c5.577,1.134,10.988,2.969,16.104,5.464c20.558-36.594,66.89-49.594,103.484-29.035c15.292,8.591,27.142,22.207,33.54,38.539
	c1.749-0.222,3.509-0.334,5.272-0.336c26.499,0.026,47.974,21.501,48,48h-16c0-17.673-14.327-32-32-32
	c-2.868,0.049-5.716,0.491-8.464,1.312c-4.247,1.173-8.643-1.31-9.832-5.552c-8.938-31.881-42.029-50.481-73.91-41.542
	c-17.738,4.973-32.206,17.825-39.234,34.854c-1.689,4.083-6.368,6.024-10.45,4.335c-0.478-0.198-0.935-0.441-1.366-0.727
	c-8.514-5.668-18.516-8.688-28.744-8.68C127.296,316.153,104.035,339.414,104,368.118L104,368.118z"/>
<g>
</g>
<g>
</g>
<g>
</g>
<g>
</g>
<g>
</g>
<g>
</g>
<g>
</g>
<g>
</g>
<g>
</g>
<g>
</g>
<g>
</g>
<g>
</g>
<g>
</g>
<g>
</g>
<g>
</g>
</svg>
